<?xml version="1.0" encoding="utf-8"?>
<svg xmlns="http://www.w3.org/2000/svg" width="232" height="232" class="segno"><path transform="scale(8)" class="qrline" stroke="#1a2128" d="M0 0.5h7m5 0h1m1 0h1m2 0h2m3 0h7m-29 1h1m5 0h1m1 0h2m1 0h1m1 0h1m3 0h1m1 0h1m2 0h1m5 0h1m-29 1h1m1 0h3m1 0h1m2 0h1m2 0h1m1 0h1m1 0h1m5 0h1m1 0h3m1 0h1m-29 1h1m1 0h3m1 0h1m1 0h2m4 0h2m1 0h2m3 0h1m1 0h3m1 0h1m-29 1h1m1 0h3m1 0h1m1 0h2m1 0h1m1 0h1m1 0h1m2 0h2m2 0h1m1 0h3m1 0h1m-29 1h1m5 0h1m2 0h3m1 0h1m2 0h3m1 0h1m1 0h1m5 0h1m-29 1h7m1 0h1m1 0h1m1 0h1m1 0h1m1 0h1m1 0h1m1 0h1m1 0h7m-21 1h4m2 0h3m1 0h1m-18 1h1m1 0h4m1 0h1m1 0h1m1 0h1m1 0h1m1 0h1m1 0h2m1 0h2m1 0h2m1 0h1m-28 1h1m4 0h1m1 0h13m3 0h2m2 0h1m-27 1h4m1 0h3m2 0h2m2 0h1m4 0h4m2 0h1m-25 1h1m1 0h2m1 0h1m1 0h1m3 0h1m1 0h5m5 0h1m2 0h1m-28 1h6m1 0h1m2 0h1m1 0h1m5 0h1m1 0h2m2 0h1m1 0h1m-26 1h1m4 0h1m2 0h1m3 0h2m2 0h1m3 0h1m1 0h1m1 0h1m1 0h1m-29 1h3m1 0h3m4 0h2m1 0h1m1 0h1m1 0h6m1 0h1m2 0h1m-29 1h4m4 0h4m1 0h2m1 0h1m1 0h2m1 0h1m2 0h4m-26 1h1m2 0h2m2 0h2m1 0h4m1 0h2m4 0h1m1 0h1m1 0h1m-28 1h2m1 0h1m1 0h1m2 0h1m1 0h2m1 0h1m3 0h4m2 0h2m-25 1h2m2 0h1m1 0h2m1 0h2m1 0h1m3 0h1m2 0h1m4 0h1m1 0h1m1 0h1m-29 1h2m1 0h1m1 0h1m4 0h2m2 0h3m1 0h2m1 0h4m1 0h1m-27 1h2m2 0h3m2 0h1m1 0h3m3 0h1m1 0h6m1 0h1m-19 1h5m1 0h2m1 0h4m3 0h4m-28 1h7m3 0h1m1 0h1m2 0h2m2 0h2m1 0h1m1 0h1m1 0h1m-27 1h1m5 0h1m1 0h1m4 0h2m1 0h1m1 0h3m3 0h2m-26 1h1m1 0h3m1 0h1m1 0h2m2 0h1m1 0h1m2 0h1m1 0h6m2 0h2m-29 1h1m1 0h3m1 0h1m1 0h1m2 0h2m1 0h1m3 0h1m4 0h1m1 0h3m-28 1h1m1 0h3m1 0h1m2 0h1m2 0h4m2 0h1m1 0h2m1 0h6m-29 1h1m5 0h1m1 0h3m1 0h2m2 0h1m2 0h1m4 0h3m1 0h1m-29 1h7m3 0h1m1 0h1m2 0h1m3 0h3m1 0h2"/></svg>
