<?xml version="1.0" encoding="utf-8"?>
<svg xmlns="http://www.w3.org/2000/svg" width="200" height="200" class="segno"><path transform="scale(8)" class="qrline" stroke="#1a2128" d="M0 0.5h7m2 0h1m3 0h3m2 0h7m-25 1h1m5 0h1m1 0h1m1 0h4m1 0h2m1 0h1m5 0h1m-25 1h1m1 0h3m1 0h1m4 0h1m2 0h3m1 0h1m1 0h3m1 0h1m-25 1h1m1 0h3m1 0h1m2 0h1m2 0h1m2 0h1m2 0h1m1 0h3m1 0h1m-25 1h1m1 0h3m1 0h1m1 0h2m1 0h1m1 0h3m2 0h1m1 0h3m1 0h1m-25 1h1m5 0h1m2 0h4m1 0h2m2 0h1m5 0h1m-25 1h7m1 0h1m1 0h1m1 0h1m1 0h1m1 0h1m1 0h7m-16 1h2m1 0h2m-14 1h1m1 0h1m1 0h1m1 0h1m3 0h4m6 0h1m2 0h1m-24 1h2m1 0h1m1 0h1m2 0h2m1 0h1m1 0h1m2 0h3m5 0h1m-21 1h3m3 0h1m1 0h1m1 0h1m3 0h3m1 0h3m-24 1h1m1 0h2m2 0h2m1 0h7m1 0h1m4 0h1m-24 1h3m1 0h1m1 0h1m3 0h4m3 0h2m2 0h1m1 0h2m-23 1h1m1 0h1m4 0h6m1 0h3m2 0h1m2 0h1m-25 1h1m3 0h5m2 0h2m1 0h1m1 0h1m2 0h1m2 0h3m-24 1h2m1 0h1m2 0h1m1 0h2m1 0h2m1 0h1m1 0h1m2 0h1m2 0h1m-24 1h1m2 0h2m1 0h2m3 0h1m1 0h1m1 0h7m-14 1h4m1 0h4m3 0h2m1 0h2m-25 1h7m3 0h1m3 0h3m1 0h1m1 0h2m1 0h2m-25 1h1m5 0h1m2 0h3m1 0h1m2 0h1m3 0h2m1 0h2m-25 1h1m1 0h3m1 0h1m1 0h2m2 0h1m1 0h1m1 0h6m1 0h2m-25 1h1m1 0h3m1 0h1m2 0h5m2 0h1m2 0h4m-23 1h1m1 0h3m1 0h1m1 0h1m1 0h3m1 0h1m1 0h1m3 0h1m3 0h1m-25 1h1m5 0h1m2 0h2m1 0h2m1 0h2m1 0h1m1 0h2m1 0h1m-24 1h7m1 0h2m1 0h2m1 0h4m1 0h1m3 0h2"/></svg>
