<?xml version="1.0" encoding="utf-8"?>
<svg xmlns="http://www.w3.org/2000/svg" width="200" height="200" class="segno"><path transform="scale(8)" class="qrline" stroke="#1a2128" d="M0 0.5h7m1 0h2m2 0h1m1 0h1m1 0h1m1 0h7m-25 1h1m5 0h1m2 0h6m3 0h1m5 0h1m-25 1h1m1 0h3m1 0h1m1 0h2m1 0h6m1 0h1m1 0h3m1 0h1m-25 1h1m1 0h3m1 0h1m4 0h1m1 0h2m1 0h1m1 0h1m1 0h3m1 0h1m-25 1h1m1 0h3m1 0h1m2 0h2m2 0h2m3 0h1m1 0h3m1 0h1m-25 1h1m5 0h1m1 0h1m1 0h2m1 0h1m4 0h1m5 0h1m-25 1h7m1 0h1m1 0h1m1 0h1m1 0h1m1 0h1m1 0h7m-16 1h1m1 0h1m2 0h1m-15 1h1m1 0h1m3 0h2m1 0h1m1 0h2m2 0h1m3 0h1m2 0h1m1 0h1m-24 1h4m2 0h1m1 0h1m3 0h1m1 0h2m1 0h2m1 0h1m1 0h2m-25 1h1m2 0h2m1 0h1m2 0h1m1 0h2m2 0h1m1 0h1m3 0h2m1 0h1m-22 1h3m2 0h1m1 0h1m1 0h1m1 0h1m6 0h1m-22 1h1m1 0h2m2 0h1m1 0h2m5 0h2m1 0h2m4 0h1m-24 1h3m4 0h2m3 0h1m1 0h2m1 0h2m3 0h2m-25 1h2m4 0h2m3 0h1m1 0h1m1 0h4m2 0h2m1 0h1m-22 1h1m3 0h1m6 0h1m1 0h2m1 0h3m-22 1h2m1 0h4m4 0h4m1 0h5m2 0h1m-16 1h2m2 0h1m3 0h1m3 0h1m3 0h1m-25 1h7m1 0h1m3 0h3m1 0h1m1 0h1m1 0h1m3 0h1m-25 1h1m5 0h1m3 0h3m2 0h2m3 0h1m2 0h1m-24 1h1m1 0h3m1 0h1m3 0h1m2 0h8m3 0h1m-25 1h1m1 0h3m1 0h1m3 0h1m2 0h1m1 0h1m1 0h1m2 0h1m1 0h2m-24 1h1m1 0h3m1 0h1m1 0h2m1 0h1m4 0h1m2 0h3m1 0h2m-25 1h1m5 0h1m2 0h2m2 0h1m2 0h1m2 0h2m-21 1h7m1 0h1m1 0h4m2 0h3m2 0h1m2 0h1"/></svg>
